<mxfile host="app.diagrams.net" modified="2023-10-06T06:55:17.915Z" agent="Mozilla/5.0 (Windows NT 10.0; Win64; x64) AppleWebKit/537.36 (KHTML, like Gecko) Chrome/109.0.0.0 Safari/537.36" version="22.0.3" etag="7kZnKSDg9OeljD2_D3e4" type="github">
  <diagram name="Page-1" id="xFx6h8wEwUefl3pco_QE">
    <mxGraphModel>
      <root>
        <mxCell id="0" />
        <mxCell id="1" parent="0" />
      </root>
    </mxGraphModel>
  </diagram>
</mxfile>
